<svg xmlns="http://www.w3.org/2000/svg" xmlns:xlink="http://www.w3.org/1999/xlink" viewBox="0 0 900 900"><defs><style>.cls-1{mask:url(#mask);}.cls-2{fill:#34d399;}.cls-3{filter:url(#luminosity-noclip);}</style><filter id="luminosity-noclip" x="254.1" y="206.16" width="391.81" height="595.48" filterUnits="userSpaceOnUse" color-interpolation-filters="sRGB"><feFlood flood-color="#fff" result="bg"/><feBlend in="SourceGraphic" in2="bg"/></filter><mask id="mask" x="254.1" y="206.16" width="391.81" height="595.48" maskUnits="userSpaceOnUse"><g class="cls-3"><rect x="254.34" y="612.46" width="17.93" height="18.93"/><rect x="278.72" y="701.29" width="17.83" height="19.03"/><rect x="302.79" y="630.95" width="18.35" height="18.51"/><rect x="327.14" y="638.27" width="18.32" height="18.55"/><rect x="351.46" y="649.84" width="18.35" height="18.52"/><rect x="376.16" y="552.96" width="17.6" height="19.26"/><rect x="254.1" y="611.13" width="18.42" height="18.44"/><rect x="278.45" y="562.33" width="18.38" height="18.48"/><rect x="302.78" y="644.34" width="18.37" height="18.49"/><rect x="327.29" y="595.76" width="18.02" height="18.84"/><rect x="351.63" y="645.68" width="18.01" height="18.86"/><rect x="376.13" y="579.52" width="17.66" height="19.2"/><rect x="254.51" y="637.68" width="17.59" height="19.27"/><rect x="278.88" y="635.42" width="17.52" height="19.34"/><rect x="302.95" y="711.86" width="18.04" height="18.82"/><rect x="327.3" y="674.26" width="18.01" height="18.85"/><rect x="351.84" y="681.33" width="17.58" height="19.28"/><rect x="376.19" y="598.63" width="17.54" height="19.32"/><rect x="254.5" y="713.09" width="17.62" height="19.25"/><rect x="278.87" y="665.35" width="17.54" height="19.32"/><rect x="302.89" y="687.33" width="18.16" height="18.7"/><rect x="327.14" y="783.09" width="18.32" height="18.55"/><rect x="351.8" y="606.16" width="17.66" height="19.2"/><rect x="376.19" y="724.33" width="17.54" height="19.32"/></g></mask></defs><title>PixelPages_Icon</title><g id="Capa_2" data-name="Capa 2"><g class="cls-1"><path class="cls-2" d="M254.14,716.53V291.74a85.58,85.58,0,0,1,85.58-85.58H474.1q37.36,0,69,15.45a179.13,179.13,0,0,1,54.27,40.26A188.12,188.12,0,0,1,633,318.65,170.53,170.53,0,0,1,645.91,383a187.13,187.13,0,0,1-46.37,122.56,162.52,162.52,0,0,1-53.19,39.54q-31.27,14.74-68.65,14.74H394.31V682.92a33.61,33.61,0,0,1-33.61,33.61ZM394.31,437.62h74q12.94,0,24.08-11.86T503.58,383q0-31.62-12.94-43.13t-25.88-11.5H394.31Z"/></g><rect class="cls-2" x="254.18" y="798.62" width="18.26" height="18.6"/><rect class="cls-2" x="278.63" y="719.9" width="18.02" height="18.85"/><rect class="cls-2" x="303.04" y="726.97" width="17.85" height="19.01"/><rect class="cls-2" x="327.53" y="659.57" width="17.55" height="19.32"/><rect class="cls-2" x="351.54" y="694.16" width="18.18" height="18.69"/><rect class="cls-2" x="376.1" y="805.84" width="17.73" height="19.14"/><rect class="cls-2" x="254.51" y="715.15" width="17.61" height="19.25"/><rect class="cls-2" x="278.62" y="742.38" width="18.03" height="18.83"/><rect class="cls-2" x="303.19" y="763.67" width="17.57" height="19.3"/><rect class="cls-2" x="327.35" y="721.67" width="17.9" height="18.97"/><rect class="cls-2" x="351.41" y="679.78" width="18.43" height="18.43"/><rect class="cls-2" x="375.84" y="752.17" width="18.24" height="18.62"/><rect class="cls-2" x="254.4" y="767.18" width="17.83" height="19.03"/><rect class="cls-2" x="278.67" y="681.7" width="17.94" height="18.92"/><rect class="cls-2" x="302.9" y="847.15" width="18.13" height="18.73"/><rect class="cls-2" x="327.54" y="792.6" width="17.52" height="19.34"/><rect class="cls-2" x="351.74" y="740.78" width="17.78" height="19.09"/><rect class="cls-2" x="375.76" y="780.75" width="18.39" height="18.47"/><rect class="cls-2" x="254.16" y="734.03" width="18.29" height="18.57"/><rect class="cls-2" x="278.69" y="881.04" width="17.91" height="18.96"/><rect class="cls-2" x="303.14" y="743.73" width="17.66" height="19.2"/><rect class="cls-2" x="327.29" y="761.71" width="18.01" height="18.85"/><rect class="cls-2" x="351.72" y="792.44" width="17.82" height="19.04"/><rect class="cls-2" x="376.09" y="775.64" width="17.74" height="19.12"/><path class="cls-2" d="M756.63,137.66V750.91H143.37V137.66H756.63m39.56-39.57H103.81V790.48H796.19V98.09Z"/></g></svg>